<?xml version="1.0" standalone="no"?>
<!DOCTYPE svg PUBLIC "-//W3C//DTD SVG 20010904//EN"
 "http://www.w3.org/TR/2001/REC-SVG-20010904/DTD/svg10.dtd">
<svg version="1.0" xmlns="http://www.w3.org/2000/svg"
 width="130.000000pt" height="40.000000pt" viewBox="0 0 130.000000 40.000000"
 preserveAspectRatio="xMidYMid meet">

<g transform="translate(0.000000,40.000000) scale(0.100000,-0.100000)"
fill="#000000" stroke="none">
<path d="M1037 386 l-168 -11 -106 -150 c-57 -82 -108 -154 -112 -158 -8 -8
-612 -47 -620 -41 -4 4 65 273 72 280 2 2 158 13 347 24 189 11 348 24 354 30
13 13 -1 13 -383 -10 -232 -14 -328 -23 -336 -32 -16 -17 -86 -298 -78 -311 3
-6 39 -7 92 -3 47 4 196 13 331 21 l245 14 23 28 c60 74 60 74 95 71 24 -1 33
-6 30 -15 -3 -7 -2 -13 1 -13 4 0 11 12 16 26 12 31 -5 63 -24 44 -5 -5 -18
-10 -29 -10 -17 0 -17 1 -1 28 9 16 24 39 35 53 l18 24 -2 -44 c-3 -74 18 -57
44 36 l24 88 180 11 c99 5 182 9 184 7 4 -3 -65 -272 -72 -279 -2 -2 -101 -10
-220 -16 -196 -11 -251 -18 -237 -31 3 -3 108 1 234 8 163 10 232 17 241 27
15 16 87 297 79 309 -6 10 -26 10 -257 -5z"/>
<path d="M1175 350 l-49 -5 -30 -113 c-16 -62 -26 -115 -23 -118 12 -12 107 8
107 22 0 9 -11 14 -30 14 -32 0 -35 5 -21 44 7 17 19 26 38 28 18 2 29 10 31
22 3 16 0 18 -22 12 -21 -5 -26 -3 -26 13 0 26 26 51 55 51 21 0 43 26 27 32
-4 2 -29 1 -57 -2z"/>
<path d="M1043 327 c-10 -13 -27 -40 -38 -60 -25 -47 -35 -47 -35 2 0 52 -8
71 -30 71 -21 0 -19 3 -55 -130 -30 -114 -30 -110 -6 -110 16 0 24 13 38 63
17 60 18 61 23 28 7 -48 24 -49 51 -2 12 23 24 39 25 38 2 -2 -3 -27 -11 -57
-8 -30 -15 -56 -15 -58 0 -2 10 -2 23 0 19 3 26 17 49 103 14 55 27 108 27
118 1 24 -24 21 -46 -6z"/>
<path d="M611 303 c-14 -11 -30 -45 -42 -88 -31 -113 -25 -135 36 -135 36 0
81 44 93 90 l10 40 -33 0 c-36 0 -56 -17 -35 -30 16 -10 9 -40 -12 -54 -12 -7
-21 -7 -28 0 -12 12 22 143 41 154 16 11 39 1 39 -16 0 -8 9 -14 21 -14 17 0
20 5 17 33 -3 30 -6 32 -44 35 -28 2 -48 -3 -63 -15z"/>
<path d="M425 298 c-10 -31 -55 -211 -55 -220 0 -17 98 -3 120 17 21 19 60
130 60 169 0 12 -5 27 -12 34 -16 16 -107 16 -113 0z m72 -73 c-10 -69 -32
-115 -57 -115 -16 0 -20 5 -16 18 3 9 10 37 16 62 19 77 21 80 42 80 19 0 20
-4 15 -45z"/>
<path d="M161 291 l-44 -6 -30 -113 c-16 -62 -27 -115 -25 -118 3 -3 29 -2 57
2 39 5 51 11 51 24 0 13 -7 16 -30 12 -30 -4 -31 -3 -24 24 10 42 12 44 45 44
22 0 29 5 29 20 0 15 -7 20 -25 20 -27 0 -31 10 -15 41 7 12 21 19 39 19 16 0
31 6 34 14 6 14 -1 27 -12 24 -3 0 -26 -4 -50 -7z"/>
<path d="M257 293 c-8 -14 -57 -200 -57 -217 0 -9 8 -16 19 -16 15 0 22 13 34
58 15 58 21 56 32 -11 5 -30 10 -37 28 -37 20 0 25 12 50 108 15 59 27 110 27
115 0 4 -9 7 -20 7 -14 0 -22 -11 -30 -42 -22 -86 -24 -86 -35 -5 -5 37 -10
47 -25 47 -10 0 -21 -3 -23 -7z"/>
</g>
</svg>
